Coordinates
version=1
nRows=10
nColumns=63
inDegrees=yes

Units are S.I. units (second, meters, Newtons, ...)
If the header above contains a line with 'inDegrees', this indicates whether rotational values are in degrees (yes) or radians (no).

endheader
time	pelvis_tilt	pelvis_list	pelvis_rotation	pelvis_tx	pelvis_ty	pelvis_tz	hip_flexion_r	hip_adduction_r	hip_rotation_r	knee_angle_r	knee_angle_r_beta	ankle_angle_r	subtalar_angle_r	mtp_angle_r	hip_flexion_l	hip_adduction_l	hip_rotation_l	knee_angle_l	knee_angle_l_beta	ankle_angle_l	subtalar_angle_l	mtp_angle_l	L5_S1_Flex_Ext	L5_S1_Lat_Bending	L5_S1_axial_rotation	L4_L5_Flex_Ext	L4_L5_Lat_Bending	L4_L5_axial_rotation	L3_L4_Flex_Ext	L3_L4_Lat_Bending	L3_L4_axial_rotation	L2_L3_Flex_Ext	L2_L3_Lat_Bending	L2_L3_axial_rotation	L1_L2_Flex_Ext	L1_L2_Lat_Bending	L1_L2_axial_rotation	L1_T12_Flex_Ext	L1_T12_Lat_Bending	L1_T12_axial_rotation	Abs_r3	Abs_r2	Abs_r1	Abs_t1	Abs_t2	neck_flexion	neck_bending	neck_rotation	arm_flex_r	arm_add_r	arm_rot_r	elbow_flex_r	pro_sup_r	wrist_flex_r	wrist_dev_r	arm_flex_l	arm_add_l	arm_rot_l	elbow_flex_l	pro_sup_l	wrist_flex_l	wrist_dev_l
0.000000	2.197807	-4.746959	88.027155	0.314312	1.049676	0.422769	3.046383	-4.413809	-5.002268	6.497866	0.113409	24.138244	7.545671	0.000000	2.807973	3.561885	3.723828	6.241052	0.108927	20.687945	-12.968198	0.000000	0.020520	0.076871	0.630451	0.038108	0.102238	0.669854	0.033713	0.186904	0.669854	0.023453	0.186904	0.551644	0.019055	0.156755	0.512241	0.011725	0.119073	0.472838	0.146575	0.869577	3.506378	0.000000	0.000000	27.683179	3.578082	7.948281	8.756510	-15.106203	31.704520	25.258376	98.184559	-8.953051	6.964003	8.552466	-13.480446	68.408699	25.468705	78.240723	-8.550160	8.008020
0.016949	2.177354	-4.339479	88.057150	0.316031	1.048666	0.418997	2.289325	-4.381557	-5.047871	6.518758	0.113774	25.467801	8.878264	0.000000	2.162167	3.444897	3.565720	6.546771	0.114263	22.082623	-12.055530	0.000000	0.026325	0.041822	0.549160	0.048887	0.055623	0.583483	0.043249	0.101686	0.583483	0.030086	0.101686	0.480515	0.024445	0.085283	0.446193	0.015042	0.064782	0.411870	0.188033	0.473097	3.054265	0.000000	0.000000	27.755564	3.750775	6.833508	9.110819	-14.304875	48.028148	21.346723	84.935604	-7.333445	5.213596	4.932906	-14.670077	53.237690	27.208968	85.203159	-10.779147	4.725711
0.033898	2.161133	-3.980789	88.079736	0.317469	1.047734	0.415840	1.624582	-4.349765	-4.944959	6.546577	0.114259	26.544675	9.811768	0.000000	1.596620	3.347624	3.426516	6.789042	0.118491	23.267120	-11.268248	0.000000	0.027730	0.012317	0.485812	0.051498	0.016381	0.516175	0.045558	0.029947	0.516175	0.031693	0.029947	0.425086	0.025750	0.025116	0.394722	0.015845	0.019079	0.364359	0.198074	0.139329	2.701941	0.000000	0.000000	27.787265	3.887068	5.961029	9.317940	-13.604269	62.370397	18.020062	72.644235	-6.006791	3.460658	1.988803	-15.596895	41.918599	28.231875	90.047117	-12.482062	2.112716
0.050847	2.148607	-3.669046	88.095276	0.318650	1.046879	0.413247	1.047782	-4.318874	-4.714318	6.579237	0.114829	27.392906	10.390664	0.000000	1.107073	3.268551	3.302303	6.972986	0.121702	24.257850	-10.594954	0.000000	0.025388	-0.012067	0.438605	0.047149	-0.016049	0.466018	0.041711	-0.029339	0.466018	0.029016	-0.029339	0.383779	0.023576	-0.024606	0.356367	0.014507	-0.018691	0.328954	0.181346	-0.136499	2.439390	0.000000	0.000000	27.783899	3.988371	5.307654	9.394720	-12.997746	74.843053	15.236294	61.308243	-4.950923	1.721162	-0.334944	-16.281851	34.149042	28.604363	92.930264	-13.709939	0.099997
0.067797	2.139241	-3.402407	88.104133	0.319597	1.046097	0.411166	0.554552	-4.289330	-4.376731	6.614655	0.115448	28.036530	10.659431	0.000000	0.689270	3.206163	3.189168	7.103724	0.123983	25.071224	-10.024252	0.000000	0.019950	-0.031750	0.405738	0.037049	-0.042228	0.431097	0.032776	-0.077197	0.431097	0.022801	-0.077197	0.355021	0.018525	-0.064745	0.329662	0.011399	-0.049181	0.304304	0.142499	-0.359163	2.256595	0.000000	0.000000	27.751085	4.056094	4.850191	9.358007	-12.478663	85.557902	12.953325	50.925420	-4.143677	0.011083	-2.093437	-16.745897	29.626635	28.393368	94.010266	-14.513812	-1.381482
0.084746	2.132496	-3.179029	88.106670	0.320333	1.045387	0.409546	0.140520	-4.261574	-3.952982	6.650745	0.116077	28.499584	10.662551	0.000000	0.338953	3.158946	3.083199	7.186378	0.125426	25.723654	-9.544743	0.000000	0.012065	-0.047156	0.385411	0.022407	-0.062717	0.409499	0.019822	-0.114655	0.409499	0.013790	-0.114655	0.337234	0.011204	-0.096160	0.313146	0.006894	-0.073044	0.289058	0.086182	-0.533436	2.143539	0.000000	0.000000	27.694441	4.091647	4.565450	9.224648	-12.040382	94.626731	11.129057	41.493559	-3.562886	-1.653607	-3.341778	-17.009983	28.048993	27.665829	93.444791	-14.944714	-2.400758
0.101695	2.127837	-2.997071	88.103250	0.320880	1.044747	0.408334	-0.198687	-4.236049	-3.463855	6.685423	0.116683	28.806108	10.444503	0.000000	0.051864	3.125386	2.980482	7.226067	0.126119	26.231554	-9.145031	0.000000	0.002386	-0.058706	0.375822	0.004431	-0.078079	0.399310	0.003920	-0.142738	0.399310	0.002727	-0.142738	0.328844	0.002216	-0.119713	0.305355	0.001363	-0.090935	0.281866	0.017045	-0.664093	2.090207	0.000000	0.000000	27.619586	4.096439	4.430240	9.011489	-11.676260	102.161327	9.721395	33.010450	-3.186386	-3.256932	-4.135070	-17.095061	29.113732	26.488682	91.391504	-15.053678	-3.026868
0.118644	2.124726	-2.854689	88.094235	0.321263	1.044176	0.407479	-0.467441	-4.213199	-2.930135	6.716605	0.117227	28.980137	10.049767	0.000000	-0.176254	3.103969	2.877105	7.227914	0.126151	26.611336	-8.813719	0.000000	-0.008437	-0.066822	0.375169	-0.015668	-0.088874	0.398617	-0.013861	-0.162472	0.398617	-0.009643	-0.162472	0.328273	-0.007835	-0.136264	0.304825	-0.004821	-0.103508	0.281377	-0.060265	-0.755908	2.086580	0.000000	0.000000	27.532138	4.071880	4.421370	8.735377	-11.379657	108.273477	8.688241	25.473886	-2.992010	-4.782921	-4.528414	-17.022083	32.518467	24.928866	88.008071	-14.891740	-3.328848
0.135593	2.122627	-2.750041	88.079989	0.321504	1.043670	0.406930	-0.670114	-4.193466	-2.372605	6.742205	0.117674	29.045709	9.522824	0.000000	-0.349658	3.093179	2.769154	7.197039	0.125612	26.879411	-8.539408	0.000000	-0.019753	-0.071927	0.381653	-0.036684	-0.095663	0.405507	-0.032453	-0.174884	0.405507	-0.022576	-0.174884	0.333947	-0.018343	-0.146674	0.310093	-0.011287	-0.111415	0.286240	-0.141096	-0.813655	2.122642	0.000000	0.000000	27.437716	4.019380	4.515649	8.413160	-11.143933	113.074966	7.987499	18.881659	-2.957594	-6.215598	-4.576914	-16.811998	37.960815	23.053317	83.452159	-14.509931	-3.375735
0.152542	2.121003	-2.681285	88.060874	0.321627	1.043228	0.406634	-0.811079	-4.177294	-1.812050	6.760139	0.117987	29.026863	8.908154	0.000000	-0.472606	3.091503	2.652716	7.138562	0.124591	27.052192	-8.310702	0.000000	-0.030912	-0.074443	0.393473	-0.057406	-0.099009	0.418065	-0.050785	-0.181000	0.418065	-0.035329	-0.181000	0.344288	-0.028705	-0.151803	0.319696	-0.017663	-0.115311	0.295104	-0.220800	-0.842109	2.188376	0.000000	0.000000	27.341938	3.940350	4.689886	8.061685	-10.962446	116.677582	7.577074	13.231561	-3.060973	-7.538991	-4.335670	-16.485759	45.138391	20.928972	77.881435	-13.959287	-3.236567
